<?xml version="1.0" encoding="UTF-8" standalone="no"?>
<svg
   xmlns:dc="http://purl.org/dc/elements/1.1/"
   xmlns:cc="http://creativecommons.org/ns#"
   xmlns:rdf="http://www.w3.org/1999/02/22-rdf-syntax-ns#"
   xmlns:svg="http://www.w3.org/2000/svg"
   xmlns="http://www.w3.org/2000/svg"
   xmlns:sodipodi="http://sodipodi.sourceforge.net/DTD/sodipodi-0.dtd"
   xmlns:inkscape="http://www.inkscape.org/namespaces/inkscape"
   version="1.1"
   id="Layer_1"
   x="0px"
   y="0px"
   width="100px"
   height="100px"
   viewBox="0 0 100 100"
   enable-background="new 0 0 100 100"
   xml:space="preserve"
   inkscape:version="0.48.3.1 r9886"
   sodipodi:docname="fox.svg"><metadata
   id="metadata13"><rdf:RDF><cc:Work
       rdf:about=""><dc:format>image/svg+xml</dc:format><dc:type
         rdf:resource="http://purl.org/dc/dcmitype/StillImage" /><dc:title></dc:title></cc:Work></rdf:RDF></metadata><defs
   id="defs11" /><sodipodi:namedview
   pagecolor="#ffffff"
   bordercolor="#666666"
   borderopacity="1"
   objecttolerance="10"
   gridtolerance="10"
   guidetolerance="10"
   inkscape:pageopacity="0"
   inkscape:pageshadow="2"
   inkscape:window-width="1301"
   inkscape:window-height="744"
   id="namedview9"
   showgrid="false"
   inkscape:zoom="2.36"
   inkscape:cx="50"
   inkscape:cy="50"
   inkscape:window-x="65"
   inkscape:window-y="24"
   inkscape:window-maximized="1"
   inkscape:current-layer="Layer_1" />
<path
   d="M74.823,55.914c-0.282-0.288-0.669-0.45-1.072-0.45c-11.398,0-12.081,0-16.173,7.806c-0.232,0.442-0.229,0.972,0.01,1.411  c0.237,0.439,0.679,0.731,1.177,0.778c0.026,0.003,0.669,0.062,1.642,0.062c2.48,0,7.036-0.395,9.673-3.038  c1.043-1.046,1.686-2.319,1.917-3.795c0.097-0.008,0.189-0.017,0.274-0.023c1.776-0.151,2.95-0.251,2.98-1.669  C75.259,56.593,75.105,56.203,74.823,55.914z"
   id="path3" />
<path
   d="M42.422,63.27c-4.092-7.806-4.774-7.806-16.173-7.806c-0.403,0-0.79,0.162-1.072,0.45c-0.282,0.289-0.437,0.679-0.428,1.082  c0.03,1.417,1.204,1.518,2.98,1.669c0.084,0.007,0.178,0.016,0.274,0.023c0.232,1.478,0.875,2.749,1.917,3.795  c2.637,2.644,7.192,3.038,9.673,3.038c0,0,0,0,0,0c0.972,0,1.614-0.06,1.641-0.062c0.498-0.047,0.938-0.339,1.177-0.778  S42.654,63.712,42.422,63.27z"
   id="path5" />
<path
   d="M91.602,2.6C89.618,0.617,85.9,0.676,80.847,2.769C71.742,6.541,59.53,16.797,56.902,27.708  c-2.173-0.196-4.464-0.312-6.902-0.312c-2.439,0-4.73,0.116-6.903,0.312C40.469,16.796,28.257,6.54,19.151,2.768  C14.099,0.676,10.381,0.616,8.399,2.6C4.939,6.06,4.4,15.517,4.989,22.565c0.715,8.546,3.034,15.947,6.327,20.428  c-0.384,4.433-1.589,21.316,1.782,26.772c3.64,5.89,17.941,11.999,21.88,13.596c-0.038,2.791,0.092,9.178,1.93,11.728  c2.554,3.543,9.905,5.076,13.092,5.076c3.188,0,10.54-1.533,13.092-5.076c1.84-2.551,1.96-8.985,1.918-11.795  c3.951-1.586,18.252-7.64,21.893-13.528c3.372-5.456,2.166-22.344,1.782-26.773C96.241,32.681,97.399,8.397,91.602,2.6z   M85.027,44.801c0.23,0.23,0.521,0.343,0.818,0.393c0.486,6.944,0.811,19.261-1.496,22.993C81.7,72.474,70.89,77.617,65,80.06  v-6.631c0-0.828-0.672-1.5-1.5-1.5s-1.5,0.672-1.5,1.5V82v1v0.82c0,0.044,0.01,0.086,0.013,0.129  c0.001,3.531-0.373,8.023-1.354,9.385c-1.239,1.72-5.038,3.068-8.168,3.592c1.58-1.46,3.199-3.74,3.199-5.684  c0-3.143-2.547-4.205-5.689-4.205c-3.142,0-5.69,1.062-5.69,4.205c0,1.943,1.624,4.225,3.204,5.684  c-3.13-0.522-6.932-1.871-8.172-3.592c-0.976-1.354-1.357-5.785-1.365-9.283C37.988,83.976,38,83.899,38,83.82v-1.359  c0-0.018,0.001-0.037,0.001-0.055c0-0.004-0.001-0.008-0.001-0.012v-8.966c0-0.828-0.671-1.5-1.5-1.5s-1.5,0.672-1.5,1.5v6.699  c-5.885-2.464-16.699-7.651-19.351-11.94c-2.305-3.73-1.98-16.049-1.495-22.994c0.298-0.05,0.589-0.163,0.819-0.393  c0.586-0.585,0.586-1.536,0-2.121c-3.615-3.616-6.23-11.229-6.994-20.365C7.306,14.266,8.375,6.867,10.52,4.721  c0.744-0.744,3.148-0.977,7.483,0.819c9.48,3.927,22.613,15.259,22.613,26.325c0,0.829,0.671,1.5,1.5,1.5s1.5-0.671,1.5-1.5  c0-0.396-0.015-0.791-0.044-1.186c2.025-0.18,4.162-0.283,6.427-0.283s4.401,0.104,6.427,0.283  c-0.028,0.395-0.044,0.791-0.044,1.186c0,0.829,0.672,1.5,1.5,1.5s1.5-0.671,1.5-1.5c0-11.064,13.132-22.397,22.612-26.324  c4.332-1.795,6.741-1.563,7.485-0.819c4.514,4.514,3.607,29.897-4.453,37.958C84.441,43.266,84.441,44.215,85.027,44.801z"
   id="path7" />
<path
   style="fill:#ffffff;fill-opacity:1;stroke:#000000;stroke-width:0.42372882;stroke-opacity:1"
   d="m 42.545983,95.094093 c -3.843454,-1.818258 -3.994802,-2.294801 -4.295086,-13.52369 -0.214269,-8.012395 -0.32854,-9.119373 -0.983948,-9.531734 -0.539009,-0.339122 -0.944041,-0.339368 -1.483051,-8.47e-4 -0.582442,0.365746 -0.786978,1.254131 -0.95339,4.140975 l -0.211864,3.675288 -5.720339,-2.874843 C 19.326247,72.168657 16.163883,69.63228 15.021649,65.849449 14.464424,64.004034 14.313412,61.652691 14.298504,54.589631 c -0.01678,-7.952292 0.06215,-9.008445 0.722682,-9.670098 0.975381,-0.977027 0.954071,-1.109141 -0.50343,-3.121163 -4.131933,-5.703967 -6.3821628,-14.237675 -6.3821628,-24.20353 0,-7.006911 1.3322617,-12.3265656 3.2736568,-13.0715487 0.988341,-0.3792621 4.90191,0.5319302 7.610417,1.7719259 10.454147,4.7860668 20.238069,15.8187588 21.206951,23.9136988 0.223145,1.864365 0.555413,2.854474 1.065755,3.175798 1.021488,0.643155 2.186034,-0.139033 2.358653,-1.584232 l 0.134078,-1.122516 6.062955,0 6.062958,0 0.247419,1.237107 c 0.257034,1.28515 1.360755,1.938933 2.52142,1.493544 0.385017,-0.147745 0.774131,-0.99681 0.926797,-2.02232 0.591322,-3.972102 1.231898,-5.90225 2.866817,-8.638125 4.490077,-7.513707 12.808382,-14.400008 20.975416,-17.3644815 5.933546,-2.1537623 7.157991,-0.9840591 8.214029,7.8468265 1.13425,9.484919 -1.702699,22.864023 -5.992877,28.262508 -1.423852,1.791686 -1.60147,2.936609 -0.547106,3.52666 0.631928,0.353646 0.718089,1.340277 0.73264,8.389701 0.02542,12.324682 -0.640678,14.506529 -5.564801,18.227283 -2.286928,1.728043 -11.861407,6.882225 -13.998398,7.535687 -0.928881,0.284038 -0.95339,0.211186 -0.95339,-2.834 0,-3.552975 -0.555068,-4.717055 -2.142386,-4.493004 l -1.03558,0.146173 -0.260348,8.262712 c -0.14319,4.544492 -0.399415,9.079712 -0.569389,10.078263 -0.418996,2.461487 -1.926666,4.109898 -4.712221,5.15211 -3.036415,1.136068 -3.385551,1.099598 -2.329216,-0.243318 1.396047,-1.774788 1.860632,-4.101487 1.155793,-5.788394 -0.809289,-1.936906 -2.466653,-2.558457 -6.251805,-2.344576 -2.671259,0.150936 -3.142663,0.307924 -4.033052,1.343059 -1.338589,1.556204 -1.314151,3.706399 0.06895,6.066475 1.301608,2.221025 0.951802,2.296136 -2.683743,0.576237 l 0,0 z M 42.215496,65.181597 c 0.924557,-0.924555 0.865729,-1.225809 -0.832325,-4.262211 -2.545668,-4.552081 -4.820486,-5.635746 -11.870459,-5.654789 -4.06197,-0.01097 -4.851695,0.304128 -4.851695,1.935831 0,0.957928 0.728006,1.44364 2.163787,1.44364 0.499189,0 0.990123,0.438805 1.247084,1.114665 0.789998,2.077852 2.224888,3.650309 4.079618,4.470746 3.624833,1.603432 8.912433,2.103678 10.06399,0.952118 l 0,0 z M 66.647025,64.76978 c 2.226869,-0.73264 4.41464,-2.685377 5.250873,-4.686763 0.41825,-1.001017 0.890259,-1.413394 1.732208,-1.513381 1.475246,-0.175191 2.267856,-1.331153 1.619563,-2.362009 -0.375495,-0.597076 -1.191737,-0.765546 -4.190148,-0.864843 -7.084224,-0.234602 -9.85639,1.010894 -12.488174,5.610775 -2.293118,4.007949 -1.578589,5.066602 3.165941,4.690683 1.631356,-0.129255 3.840737,-0.522763 4.909737,-0.874462 l 0,0 z"
   id="path2990"
   inkscape:connector-curvature="0" /></svg>